<mxfile host="app.diagrams.net" modified="2023-02-25T08:49:56.614Z" agent="5.0 (Windows NT 10.0; Win64; x64) AppleWebKit/537.36 (KHTML, like Gecko) Chrome/97.0.4692.71 Safari/537.36" etag="BKm1ypLxxcML2RbnIJtU" version="20.8.23" type="github">
  <diagram name="第 1 页" id="WMbE2pWvK8cWfMMglYSd">
    <mxGraphModel dx="1416" dy="738" grid="1" gridSize="10" guides="1" tooltips="1" connect="1" arrows="1" fold="1" page="1" pageScale="1" pageWidth="827" pageHeight="1169" math="0" shadow="0">
      <root>
        <mxCell id="0" />
        <mxCell id="1" parent="0" />
        <mxCell id="sS-b0C_5kmEtddLcen15-4" style="edgeStyle=orthogonalEdgeStyle;rounded=0;orthogonalLoop=1;jettySize=auto;html=1;fontSize=18;" edge="1" parent="1" source="sS-b0C_5kmEtddLcen15-1" target="sS-b0C_5kmEtddLcen15-2">
          <mxGeometry relative="1" as="geometry" />
        </mxCell>
        <mxCell id="sS-b0C_5kmEtddLcen15-1" value="&lt;font style=&quot;font-size: 18px;&quot;&gt;代理对象方法调用&lt;/font&gt;" style="strokeWidth=2;html=1;shape=mxgraph.flowchart.start_1;whiteSpace=wrap;" vertex="1" parent="1">
          <mxGeometry x="310" y="210" width="156" height="60" as="geometry" />
        </mxCell>
        <mxCell id="sS-b0C_5kmEtddLcen15-5" style="edgeStyle=orthogonalEdgeStyle;rounded=0;orthogonalLoop=1;jettySize=auto;html=1;fontSize=18;" edge="1" parent="1" source="sS-b0C_5kmEtddLcen15-2" target="sS-b0C_5kmEtddLcen15-3">
          <mxGeometry relative="1" as="geometry" />
        </mxCell>
        <mxCell id="sS-b0C_5kmEtddLcen15-2" value="为目标方法查找拦截器链" style="rounded=1;whiteSpace=wrap;html=1;absoluteArcSize=1;arcSize=14;strokeWidth=2;fontSize=18;" vertex="1" parent="1">
          <mxGeometry x="272" y="300" width="232" height="50" as="geometry" />
        </mxCell>
        <mxCell id="sS-b0C_5kmEtddLcen15-8" value="true" style="edgeStyle=orthogonalEdgeStyle;rounded=0;orthogonalLoop=1;jettySize=auto;html=1;entryX=0.5;entryY=0;entryDx=0;entryDy=0;fontSize=18;" edge="1" parent="1" source="sS-b0C_5kmEtddLcen15-3" target="sS-b0C_5kmEtddLcen15-7">
          <mxGeometry x="0.2609" relative="1" as="geometry">
            <mxPoint as="offset" />
          </mxGeometry>
        </mxCell>
        <mxCell id="sS-b0C_5kmEtddLcen15-10" style="edgeStyle=orthogonalEdgeStyle;rounded=0;orthogonalLoop=1;jettySize=auto;html=1;fontSize=18;exitX=1;exitY=0.5;exitDx=0;exitDy=0;exitPerimeter=0;" edge="1" parent="1" source="sS-b0C_5kmEtddLcen15-3" target="sS-b0C_5kmEtddLcen15-9">
          <mxGeometry relative="1" as="geometry" />
        </mxCell>
        <mxCell id="sS-b0C_5kmEtddLcen15-11" value="false" style="edgeLabel;html=1;align=center;verticalAlign=middle;resizable=0;points=[];fontSize=18;" vertex="1" connectable="0" parent="sS-b0C_5kmEtddLcen15-10">
          <mxGeometry x="-0.2014" y="-2" relative="1" as="geometry">
            <mxPoint as="offset" />
          </mxGeometry>
        </mxCell>
        <mxCell id="sS-b0C_5kmEtddLcen15-3" value="拦截器链是否为空" style="strokeWidth=2;html=1;shape=mxgraph.flowchart.decision;whiteSpace=wrap;fontSize=18;" vertex="1" parent="1">
          <mxGeometry x="327" y="380" width="122" height="90" as="geometry" />
        </mxCell>
        <mxCell id="sS-b0C_5kmEtddLcen15-7" value="调用目标方法" style="rounded=1;whiteSpace=wrap;html=1;absoluteArcSize=1;arcSize=14;strokeWidth=2;fontSize=18;" vertex="1" parent="1">
          <mxGeometry x="142" y="535" width="130" height="50" as="geometry" />
        </mxCell>
        <mxCell id="sS-b0C_5kmEtddLcen15-9" value="调用 ReflectiveMethodInvocation#proceed" style="rounded=1;whiteSpace=wrap;html=1;absoluteArcSize=1;arcSize=14;strokeWidth=2;fontSize=18;" vertex="1" parent="1">
          <mxGeometry x="449" y="535" width="361" height="50" as="geometry" />
        </mxCell>
      </root>
    </mxGraphModel>
  </diagram>
</mxfile>
